#!OML:ASF H:\Pregnant\Project 1\Capture day 1\Session 1\femalepreg.ASF
:FULLY-SPECIFIED
:DEGREES
1991
root 2.24143 2.56777 17.5678 -42.0943 25.7734 -18.7923
lowerback 5.28053 -5.33149 -10.5152
upperback 6.93866 -7.83994 9.57513
thorax 7.57103 -5.16034 16.6288
lowerneck -13.4279 8.57596 2.49643
upperneck 41.5981 16.7013 -6.76906
head 19.0941 6.42778 -0.247412
rclavicle -1.94809e-014 2.3059e-014
rhumerus -64.2549 -4.69616 -46.133
rradius 24.3974
rwrist -0.78101
rhand -57.9636 694.638
rfingers 7.12502
rthumb -30.2112 -412.911
lclavicle -1.94809e-014 2.3059e-014
lhumerus -66.6614 2.59632 79.7487
lradius 24.5011
lwrist 88.4692
lhand -55.7073 -608.405
lfingers 7.12502
lthumb -28.0564 -83.6726
rfemur -78.3965 10.5827 -12.522
rtibia 85.1214
rfoot 21.1517 14.6825
rtoes -8.82382
lfemur 2.07742 -141.797 -43.7822
ltibia 90.8822
lfoot -132.906 -161.515
ltoes 6.58769
1992
root 2.23428 2.55952 17.5618 -42.1917 25.6539 -18.6338
lowerback 5.21673 -5.41389 -10.5433
upperback 6.86916 -7.95604 9.64503
thorax 7.59256 -5.2254 16.7193
lowerneck -13.6103 8.43817 2.0938
upperneck 41.619 16.6424 -6.83112
head 19.1166 6.32251 -0.213866
rclavicle 1.06151e-013 1.59028e-014
rhumerus -64.1654 -3.91861 -46.5675
rradius 24.9191
rwrist -1.24604
rhand -58.0159 694.724
rfingers 7.12502
rthumb -30.261 -412.815
lclavicle 1.06151e-013 1.59028e-014
lhumerus -66.7862 2.70203 80.0009
lradius 24.5486
lwrist 88.726
lhand -55.622 -608.358
lfingers 7.12502
lthumb -27.9749 -83.7063
rfemur -78.3043 10.3695 -12.3173
rtibia 84.9663
rfoot 21.3877 14.9707
rtoes -8.81723
lfemur 1.93152 -141.699 -44.2739
ltibia 91.3552
lfoot -133.439 -160.453
ltoes 6.75237
1993
root 2.22706 2.55117 17.5561 -42.2846 25.5369 -18.4758
lowerback 5.16414 -5.49582 -10.5664
upperback 6.80173 -8.07118 9.69931
thorax 7.60577 -5.28786 16.7876
lowerneck -13.7658 8.31251 1.75594
upperneck 41.6027 16.5827 -6.91187
head 19.1196 6.22717 -0.201334
rclavicle 8.74653e-014 3.33958e-014
rhumerus -64.1032 -3.04464 -47.1452
rradius 25.4644
rwrist -1.92598
rhand -58.0482 695.309
rfingers 7.12502
rthumb -30.2919 -412.225
lclavicle 8.74653e-014 3.33958e-014
lhumerus -66.9097 2.85217 80.1449
lradius 24.5864
lwrist 88.9002
lhand -55.529 -608.359
lfingers 7.12502
lthumb -27.886 -83.6913
rfemur -78.2215 10.1576 -12.1159
rtibia 84.8178
rfoot 21.5796 15.2452
rtoes -8.97704
lfemur 1.80435 -141.611 -44.7933
ltibia 91.8288
lfoot -133.982 -159.406
ltoes 6.89869
1994
root 2.21968 2.54272 17.5506 -42.376 25.4192 -18.3226
lowerback 5.12868 -5.57813 -10.584
upperback 6.7363 -8.18718 9.74311
thorax 7.60881 -5.34891 16.8407
lowerneck -13.9138 8.19945 1.45701
upperneck 41.559 16.5241 -6.99141
head 19.1078 6.13985 -0.194795
rclavicle 1.10524e-013 -9.06458e-014
rhumerus -64.0434 -2.12879 -47.7983
rradius 25.9897
rwrist -2.65633
rhand -58.0927 696.006
rfingers 7.12502
rthumb -30.3343 -411.52
lclavicle 1.10524e-013 -9.06458e-014
lhumerus -67.0318 3.06803 80.1681
lradius 24.6085
lwrist 88.9693
lhand -55.4332 -608.423
lfingers 7.12502
lthumb -27.7944 -83.6121
rfemur -78.1442 9.94876 -11.9123
rtibia 84.6731
rfoot 21.7809 15.5125
rtoes -9.09447
lfemur 1.69315 -141.536 -45.3316
ltibia 92.3034
lfoot -134.532 -158.372
ltoes 7.02962
1995
root 2.21198 2.53434 17.5455 -42.4695 25.3001 -18.1776
lowerback 5.11472 -5.66245 -10.6017
upperback 6.66762 -8.30703 9.78403
thorax 7.59689 -5.41046 16.892
lowerneck -14.0413 8.09956 1.18004
upperneck 41.4885 16.4708 -7.06557
head 19.0756 6.06111 -0.189379
rclavicle 6.59965e-014 -5.56597e-014
rhumerus -63.9842 -1.19251 -48.4788
rradius 26.4938
rwrist -3.33746
rhand -58.1543 696.48
rfingers 7.12502
rthumb -30.3931 -411.035
lclavicle 6.59965e-014 -5.56597e-014
lhumerus -67.1629 3.36583 80.07
lradius 24.6086
lwrist 88.9175
lhand -55.3355 -608.552
lfingers 7.12502
lthumb -27.701 -83.4682
rfemur -78.0678 9.74502 -11.7025
rtibia 84.531
rfoot 21.9891 15.7704
rtoes -9.18512
lfemur 1.58857 -141.472 -45.8702
ltibia 92.7797
lfoot -135.075 -157.375
ltoes 7.11467
1996
root 2.20396 2.52611 17.5405 -42.5639 25.1846 -18.0364
lowerback 5.11661 -5.7466 -10.6238
upperback 6.59567 -8.42741 9.82146
thorax 7.57263 -5.4712 16.9433
lowerneck -14.1516 8.01085 0.906327
upperneck 41.3981 16.4176 -7.11404
head 19.0219 5.98848 -0.173467
rclavicle -2.0276e-014 -3.18055e-015
rhumerus -63.9316 -0.272269 -49.1448
rradius 26.9752
rwrist -3.90467
rhand -58.2388 696.582
rfingers 7.12502
rthumb -30.4736 -410.918
lclavicle -2.0276e-014 -3.18055e-015
lhumerus -67.2999 3.72419 79.8769
lradius 24.587
lwrist 88.7617
lhand -55.2392 -608.702
lfingers 7.12502
lthumb -27.609 -83.3031
rfemur -77.99 9.54625 -11.4952
rtibia 84.3905
rfoot 22.1984 16.0148
rtoes -9.27545
lfemur 1.48623 -141.418 -46.4115
ltibia 93.2558
lfoot -135.612 -156.423
ltoes 7.14928
1997
root 2.19552 2.5183 17.5356 -42.6602 25.078 -17.9033
lowerback 5.12813 -5.82945 -10.6463
upperback 6.52262 -8.54642 9.85864
thorax 7.5413 -5.53062 16.9957
lowerneck -14.271 7.9281 0.583332
upperneck 41.304 16.3577 -7.093
head 18.9499 5.91511 -0.118233
rclavicle 3.45885e-014 8.74653e-014
rhumerus -63.901 0.616393 -49.7816
rradius 27.4626
rwrist -4.37281
rhand -58.3403 696.372
rfingers 7.12502
rthumb -30.5704 -411.111
lclavicle 3.45885e-014 8.74653e-014
lhumerus -67.4335 4.11564 79.6291
lradius 24.5478
lwrist 88.5334
lhand -55.1505 -608.882
lfingers 7.12502
lthumb -27.5241 -83.11
rfemur -77.9076 9.34821 -11.2906
rtibia 84.2532
rfoot 22.4067 16.245
rtoes -9.37253
lfemur 1.38484 -141.381 -46.9529
ltibia 93.7288
lfoot -136.141 -155.506
ltoes 7.14268
1998
root 2.18684 2.51099 17.5306 -42.7571 24.9809 -17.7759
lowerback 5.14156 -5.90605 -10.6645
upperback 6.45086 -8.6563 9.89196
thorax 7.50531 -5.5843 17.0416
lowerneck -14.4004 7.84899 0.215455
upperneck 41.2097 16.2859 -6.9995
head 18.8624 5.84012 -0.0242586
rclavicle 4.25399e-014 0
rhumerus -63.9035 1.44526 -50.3756
rradius 27.9549
rwrist -4.74898
rhand -58.4473 695.951
rfingers 7.12502
rthumb -30.6724 -411.512
lclavicle 4.25399e-014 0
lhumerus -67.5583 4.48537 79.3792
lradius 24.5035
lwrist 88.293
lhand -55.0664 -609.06
lfingers 7.12502
lthumb -27.4436 -82.9189
rfemur -77.8203 9.15158 -11.0927
rtibia 84.12
rfoot 22.6129 16.4623
rtoes -9.48107
lfemur 1.27599 -141.357 -47.487
ltibia 94.1978
lfoot -136.657 -154.654
ltoes 7.07118
1999
root 2.17794 2.50417 17.5254 -42.8565 24.8905 -17.653
lowerback 5.15258 -5.97418 -10.685
upperback 6.38162 -8.75412 9.9233
thorax 7.46903 -5.63182 17.0874
lowerneck -14.5249 7.77499 -0.163346
upperneck 41.1147 16.2107 -6.87001
head 18.7663 5.768 0.086816
rclavicle 9.30312e-014 -7.63333e-014
rhumerus -63.931 2.1991 -50.9043
rradius 28.4351
rwrist -5.02324
rhand -58.5548 695.361
rfingers 7.12502
rthumb -30.7749 -412.083
lclavicle 9.30312e-014 -7.63333e-014
lhumerus -67.675 4.80008 79.1769
lradius 24.4638
lwrist 88.0947
lhand -54.9885 -609.217
lfingers 7.12502
lthumb -27.3691 -82.7503
rfemur -77.7256 8.96117 -10.9015
rtibia 83.9885
rfoot 22.8168 16.6618
rtoes -9.58231
lfemur 1.16389 -141.343 -48.0261
ltibia 94.6627
lfoot -137.177 -153.83
ltoes 6.97808
2000
root 2.16889 2.49788 17.5199 -42.9605 24.8011 -17.5366
lowerback 5.16169 -6.03309 -10.7028
upperback 6.3145 -8.83866 9.95271
thorax 7.43021 -5.67194 17.1301
lowerneck -14.6357 7.69891 -0.534928
upperneck 41.0249 16.1306 -6.73678
head 18.6712 5.69651 0.196326
rclavicle -2.34566e-014 -8.26944e-014
rhumerus -63.9851 2.87974 -51.369
rradius 28.9033
rwrist -5.21552
rhand -58.6615 694.659
rfingers 7.12502
rthumb -30.8767 -412.766
lclavicle -2.34566e-014 -8.26944e-014
lhumerus -67.7881 5.02252 79.0697
lradius 24.4408
lwrist 87.9983
lhand -54.9162 -609.337
lfingers 7.12502
lthumb -27.3 -82.6196
rfemur -77.6218 8.78014 -10.7095
rtibia 83.857
rfoot 23.0156 16.8501
rtoes -9.68878
lfemur 1.04374 -141.334 -48.557
ltibia 95.1259
lfoot -137.69 -153.045
ltoes 6.8498
2001
root 2.1597 2.49211 17.5139 -43.0692 24.7104 -17.4236
lowerback 5.16841 -6.08591 -10.7267
upperback 6.25383 -8.915 9.98263
thorax 7.39846 -5.70935 17.1778
lowerneck -14.7302 7.61803 -0.87803
upperneck 40.9343 16.0532 -6.64457
head 18.5832 5.62583 0.281865
rclavicle -5.52621e-014 3.65764e-014
rhumerus -64.0492 3.50622 -51.7812
rradius 29.3649
rwrist -5.36181
rhand -58.7589 693.907
rfingers 7.12502
rthumb -30.9695 -413.5
lclavicle -5.52621e-014 3.65764e-014
lhumerus -67.8967 5.16931 79.0617
lradius 24.4359
lwrist 88.011
lhand -54.8479 -609.397
lfingers 7.12502
lthumb -27.2347 -82.549
rfemur -77.5078 8.61156 -10.5168
rtibia 83.7202
rfoot 23.2158 17.0245
rtoes -9.77829
lfemur 0.923704 -141.325 -49.0909
ltibia 95.5899
lfoot -138.21 -152.257
ltoes 6.72663
2002
root 2.15039 2.48669 17.5075 -43.1856 24.6099 -17.3203
lowerback 5.17535 -6.13391 -10.7439
upperback 6.20107 -8.98461 10.0119
thorax 7.37164 -5.74363 17.2209
lowerneck -14.8154 7.53552 -1.17934
upperneck 40.8507 15.9834 -6.599
head 18.5114 5.5581 0.340449
rclavicle -2.14687e-014 1.43125e-014
rhumerus -64.1188 4.08121 -52.1497
rradius 29.8265
rwrist -5.48631
rhand -58.8257 693.126
rfingers 7.12502
rthumb -31.0332 -414.27
lclavicle -2.14687e-014 1.43125e-014
lhumerus -68.0071 5.23868 79.1488
lradius 24.454
lwrist 88.1417
lhand -54.7814 -609.398
lfingers 7.12502
lthumb -27.1711 -82.538
rfemur -77.3841 8.4595 -10.3127
rtibia 83.5762
rfoot 23.4223 17.1825
rtoes -9.83952
lfemur 0.811815 -141.314 -49.6253
ltibia 96.0575
lfoot -138.741 -151.441
ltoes 6.63598
2003
root 2.14089 2.48157 17.5006 -43.3098 24.4974 -17.228
lowerback 5.18338 -6.18074 -10.7497
upperback 6.15824 -9.05246 10.0385
thorax 7.35209 -5.77724 17.2533
lowerneck -14.8924 7.44923 -1.44871
upperneck 40.7674 15.9176 -6.59754
head 18.4499 5.49082 0.374183
rclavicle 7.23576e-014 1.43125e-014
rhumerus -64.1967 4.62478 -52.4991
rradius 30.3106
rwrist -5.61846
rhand -58.8705 692.312
rfingers 7.12502
rthumb -31.0759 -415.075
lclavicle 7.23576e-014 1.43125e-014
lhumerus -68.1204 5.26211 79.2917
lradius 24.4866
lwrist 88.3484
lhand -54.7193 -609.381
lfingers 7.12502
lthumb -27.1117 -82.5462
rfemur -77.2525 8.32416 -10.094
rtibia 83.4244
rfoot 23.6367 17.323
rtoes -9.87343
lfemur 0.701165 -141.299 -50.1421
ltibia 96.5291
lfoot -139.263 -150.631
ltoes 6.53411
